<mxfile host="app.diagrams.net" modified="2024-06-06T18:03:46.469Z" agent="Mozilla/5.0 (Windows NT 10.0; Win64; x64) AppleWebKit/537.36 (KHTML, like Gecko) Chrome/125.0.0.0 Safari/537.36" etag="ba6cvytqa_bTaqjb7cye" version="24.5.1" type="device">
  <diagram name="Страница — 1" id="ys9gOeWvE5gVsRyR9EHW">
    <mxGraphModel dx="1050" dy="565" grid="1" gridSize="10" guides="1" tooltips="1" connect="1" arrows="1" fold="1" page="1" pageScale="1" pageWidth="827" pageHeight="1169" math="0" shadow="0">
      <root>
        <mxCell id="0" />
        <mxCell id="1" parent="0" />
        <mxCell id="E5bmAt0e2NMVcmRqQRA6-1" value="&lt;font style=&quot;font-size: 14px;&quot; face=&quot;Helvetica&quot;&gt;Bits stream&lt;/font&gt;" style="rounded=0;whiteSpace=wrap;html=1;fillColor=#fff2cc;strokeColor=#d6b656;" parent="1" vertex="1">
          <mxGeometry x="10" y="70" width="100" height="40" as="geometry" />
        </mxCell>
        <mxCell id="E5bmAt0e2NMVcmRqQRA6-2" value="&lt;font style=&quot;font-size: 14px;&quot; face=&quot;Helvetica&quot;&gt;Modulator&lt;/font&gt;" style="rounded=0;whiteSpace=wrap;html=1;fillColor=#fff2cc;strokeColor=#d6b656;" parent="1" vertex="1">
          <mxGeometry x="10" y="130" width="100" height="40" as="geometry" />
        </mxCell>
        <mxCell id="E5bmAt0e2NMVcmRqQRA6-14" value="&lt;font style=&quot;font-size: 14px;&quot; face=&quot;Helvetica&quot;&gt;Pilot signals&lt;/font&gt;" style="rounded=0;whiteSpace=wrap;html=1;fillColor=#fff2cc;strokeColor=#d6b656;" parent="1" vertex="1">
          <mxGeometry x="10" y="190" width="100" height="40" as="geometry" />
        </mxCell>
        <mxCell id="E5bmAt0e2NMVcmRqQRA6-15" value="&lt;font style=&quot;font-size: 14px;&quot; face=&quot;Helvetica&quot;&gt;OFDM Modulation&lt;/font&gt;" style="rounded=0;whiteSpace=wrap;html=1;fillColor=#fff2cc;strokeColor=#d6b656;" parent="1" vertex="1">
          <mxGeometry x="140" y="160" width="100" height="40" as="geometry" />
        </mxCell>
        <mxCell id="E5bmAt0e2NMVcmRqQRA6-18" value="" style="verticalLabelPosition=bottom;shadow=0;dashed=0;align=center;html=1;verticalAlign=top;shape=mxgraph.electrical.radio.aerial_-_antenna_1;" parent="1" vertex="1">
          <mxGeometry x="240" y="110" width="40" height="50" as="geometry" />
        </mxCell>
        <mxCell id="E5bmAt0e2NMVcmRqQRA6-19" style="edgeStyle=orthogonalEdgeStyle;rounded=0;orthogonalLoop=1;jettySize=auto;html=1;entryX=0.5;entryY=1;entryDx=0;entryDy=0;entryPerimeter=0;exitX=1;exitY=0.5;exitDx=0;exitDy=0;" parent="1" source="E5bmAt0e2NMVcmRqQRA6-15" target="E5bmAt0e2NMVcmRqQRA6-18" edge="1">
          <mxGeometry relative="1" as="geometry">
            <mxPoint x="560" y="190" as="sourcePoint" />
          </mxGeometry>
        </mxCell>
        <mxCell id="E5bmAt0e2NMVcmRqQRA6-21" value="&lt;font style=&quot;&quot; face=&quot;Helvetica&quot;&gt;&lt;span style=&quot;font-size: 14px;&quot;&gt;Rayleigh&amp;nbsp;&lt;/span&gt;&lt;/font&gt;&lt;div&gt;&lt;span style=&quot;font-size: 14px;&quot;&gt;channel&lt;/span&gt;&lt;font style=&quot;&quot; face=&quot;Helvetica&quot;&gt;&lt;span style=&quot;font-size: 14px;&quot;&gt;, AWGN&lt;/span&gt;&lt;/font&gt;&lt;/div&gt;" style="rounded=0;whiteSpace=wrap;html=1;fillColor=#dae8fc;strokeColor=#6c8ebf;" parent="1" vertex="1">
          <mxGeometry x="290" y="50" width="90" height="210" as="geometry" />
        </mxCell>
        <mxCell id="E5bmAt0e2NMVcmRqQRA6-24" style="edgeStyle=orthogonalEdgeStyle;rounded=0;orthogonalLoop=1;jettySize=auto;html=1;exitX=0.5;exitY=0;exitDx=0;exitDy=0;entryX=0.5;entryY=1;entryDx=0;entryDy=0;" parent="1" source="E5bmAt0e2NMVcmRqQRA6-75" target="E5bmAt0e2NMVcmRqQRA6-37" edge="1">
          <mxGeometry relative="1" as="geometry">
            <mxPoint x="491" y="390" as="sourcePoint" />
          </mxGeometry>
        </mxCell>
        <mxCell id="E5bmAt0e2NMVcmRqQRA6-37" value="&lt;font style=&quot;font-size: 14px;&quot; face=&quot;Helvetica&quot;&gt;Remove pilot signals&lt;/font&gt;" style="rounded=0;whiteSpace=wrap;html=1;fillColor=#fff2cc;strokeColor=#d6b656;" parent="1" vertex="1">
          <mxGeometry x="451" y="170" width="100" height="40" as="geometry" />
        </mxCell>
        <mxCell id="E5bmAt0e2NMVcmRqQRA6-39" value="&lt;font style=&quot;font-size: 14px;&quot; face=&quot;Helvetica&quot;&gt;Equalizer&lt;/font&gt;" style="rounded=0;whiteSpace=wrap;html=1;fillColor=#fff2cc;strokeColor=#d6b656;" parent="1" vertex="1">
          <mxGeometry x="690" y="100" width="100" height="180" as="geometry" />
        </mxCell>
        <mxCell id="E5bmAt0e2NMVcmRqQRA6-53" value="" style="edgeStyle=elbowEdgeStyle;elbow=horizontal;endArrow=classic;html=1;curved=0;rounded=0;endSize=8;startSize=8;exitX=1;exitY=0.5;exitDx=0;exitDy=0;entryX=0;entryY=0.25;entryDx=0;entryDy=0;" parent="1" source="E5bmAt0e2NMVcmRqQRA6-2" target="E5bmAt0e2NMVcmRqQRA6-15" edge="1">
          <mxGeometry width="50" height="50" relative="1" as="geometry">
            <mxPoint x="220" y="220" as="sourcePoint" />
            <mxPoint x="270" y="170" as="targetPoint" />
          </mxGeometry>
        </mxCell>
        <mxCell id="E5bmAt0e2NMVcmRqQRA6-54" value="" style="edgeStyle=elbowEdgeStyle;elbow=horizontal;endArrow=classic;html=1;curved=0;rounded=0;endSize=8;startSize=8;exitX=1;exitY=0.5;exitDx=0;exitDy=0;entryX=0;entryY=0.75;entryDx=0;entryDy=0;" parent="1" source="E5bmAt0e2NMVcmRqQRA6-14" target="E5bmAt0e2NMVcmRqQRA6-15" edge="1">
          <mxGeometry width="50" height="50" relative="1" as="geometry">
            <mxPoint x="120" y="160" as="sourcePoint" />
            <mxPoint x="150" y="180" as="targetPoint" />
          </mxGeometry>
        </mxCell>
        <mxCell id="E5bmAt0e2NMVcmRqQRA6-56" value="" style="endArrow=classic;html=1;rounded=0;exitX=0.5;exitY=1;exitDx=0;exitDy=0;entryX=0.5;entryY=0;entryDx=0;entryDy=0;" parent="1" source="E5bmAt0e2NMVcmRqQRA6-1" target="E5bmAt0e2NMVcmRqQRA6-2" edge="1">
          <mxGeometry width="50" height="50" relative="1" as="geometry">
            <mxPoint x="245" y="202" as="sourcePoint" />
            <mxPoint x="295" y="152" as="targetPoint" />
          </mxGeometry>
        </mxCell>
        <mxCell id="E5bmAt0e2NMVcmRqQRA6-68" value="&lt;font style=&quot;font-size: 14px;&quot; face=&quot;Helvetica&quot;&gt;OFDM Demodulation&lt;/font&gt;" style="rounded=0;whiteSpace=wrap;html=1;fillColor=#fff2cc;strokeColor=#d6b656;" parent="1" vertex="1">
          <mxGeometry x="451" y="100" width="100" height="40" as="geometry" />
        </mxCell>
        <mxCell id="E5bmAt0e2NMVcmRqQRA6-69" value="" style="verticalLabelPosition=bottom;shadow=0;dashed=0;align=center;html=1;verticalAlign=top;shape=mxgraph.electrical.radio.aerial_-_antenna_1;" parent="1" vertex="1">
          <mxGeometry x="391" y="50" width="40" height="50" as="geometry" />
        </mxCell>
        <mxCell id="E5bmAt0e2NMVcmRqQRA6-74" style="edgeStyle=orthogonalEdgeStyle;rounded=0;orthogonalLoop=1;jettySize=auto;html=1;exitX=0.5;exitY=1;exitDx=0;exitDy=0;entryX=0;entryY=0.5;entryDx=0;entryDy=0;exitPerimeter=0;" parent="1" source="E5bmAt0e2NMVcmRqQRA6-69" target="E5bmAt0e2NMVcmRqQRA6-68" edge="1">
          <mxGeometry relative="1" as="geometry">
            <mxPoint x="631" y="70" as="sourcePoint" />
            <mxPoint x="591" y="50" as="targetPoint" />
          </mxGeometry>
        </mxCell>
        <mxCell id="E5bmAt0e2NMVcmRqQRA6-75" value="&lt;font style=&quot;font-size: 14px;&quot; face=&quot;Helvetica&quot;&gt;OFDM Demodulation&lt;/font&gt;" style="rounded=0;whiteSpace=wrap;html=1;fillColor=#fff2cc;strokeColor=#d6b656;" parent="1" vertex="1">
          <mxGeometry x="451" y="240" width="100" height="40" as="geometry" />
        </mxCell>
        <mxCell id="E5bmAt0e2NMVcmRqQRA6-76" value="" style="verticalLabelPosition=bottom;shadow=0;dashed=0;align=center;html=1;verticalAlign=top;shape=mxgraph.electrical.radio.aerial_-_antenna_1;" parent="1" vertex="1">
          <mxGeometry x="391" y="190" width="40" height="50" as="geometry" />
        </mxCell>
        <mxCell id="E5bmAt0e2NMVcmRqQRA6-77" style="edgeStyle=orthogonalEdgeStyle;rounded=0;orthogonalLoop=1;jettySize=auto;html=1;exitX=0.5;exitY=1;exitDx=0;exitDy=0;entryX=0;entryY=0.5;entryDx=0;entryDy=0;exitPerimeter=0;" parent="1" source="E5bmAt0e2NMVcmRqQRA6-76" target="E5bmAt0e2NMVcmRqQRA6-75" edge="1">
          <mxGeometry relative="1" as="geometry">
            <mxPoint x="421" y="310" as="sourcePoint" />
            <mxPoint x="381" y="290" as="targetPoint" />
            <Array as="points">
              <mxPoint x="411" y="260" />
            </Array>
          </mxGeometry>
        </mxCell>
        <mxCell id="E5bmAt0e2NMVcmRqQRA6-78" style="edgeStyle=orthogonalEdgeStyle;rounded=0;orthogonalLoop=1;jettySize=auto;html=1;exitX=0.5;exitY=1;exitDx=0;exitDy=0;entryX=0.5;entryY=0;entryDx=0;entryDy=0;" parent="1" source="E5bmAt0e2NMVcmRqQRA6-68" target="E5bmAt0e2NMVcmRqQRA6-37" edge="1">
          <mxGeometry relative="1" as="geometry">
            <mxPoint x="511" y="250" as="sourcePoint" />
            <mxPoint x="511" y="220" as="targetPoint" />
          </mxGeometry>
        </mxCell>
        <mxCell id="E5bmAt0e2NMVcmRqQRA6-79" value="&lt;font style=&quot;font-size: 14px;&quot; face=&quot;Helvetica&quot;&gt;Channel Estimation&lt;/font&gt;" style="rounded=0;whiteSpace=wrap;html=1;fillColor=#fff2cc;strokeColor=#d6b656;" parent="1" vertex="1">
          <mxGeometry x="571" y="170" width="100" height="40" as="geometry" />
        </mxCell>
        <mxCell id="E5bmAt0e2NMVcmRqQRA6-80" value="" style="endArrow=classic;html=1;rounded=0;exitX=1;exitY=0.5;exitDx=0;exitDy=0;entryX=0;entryY=0.5;entryDx=0;entryDy=0;" parent="1" source="E5bmAt0e2NMVcmRqQRA6-37" target="E5bmAt0e2NMVcmRqQRA6-79" edge="1">
          <mxGeometry width="50" height="50" relative="1" as="geometry">
            <mxPoint x="621" y="300" as="sourcePoint" />
            <mxPoint x="671" y="250" as="targetPoint" />
          </mxGeometry>
        </mxCell>
        <mxCell id="E5bmAt0e2NMVcmRqQRA6-86" style="edgeStyle=orthogonalEdgeStyle;rounded=0;orthogonalLoop=1;jettySize=auto;html=1;exitX=1;exitY=0.5;exitDx=0;exitDy=0;entryX=0;entryY=0.25;entryDx=0;entryDy=0;" parent="1" source="E5bmAt0e2NMVcmRqQRA6-68" target="E5bmAt0e2NMVcmRqQRA6-39" edge="1">
          <mxGeometry relative="1" as="geometry">
            <mxPoint x="600" y="300" as="sourcePoint" />
            <mxPoint x="740" y="330" as="targetPoint" />
          </mxGeometry>
        </mxCell>
        <mxCell id="E5bmAt0e2NMVcmRqQRA6-87" style="edgeStyle=orthogonalEdgeStyle;rounded=0;orthogonalLoop=1;jettySize=auto;html=1;exitX=1;exitY=0.5;exitDx=0;exitDy=0;entryX=0;entryY=0.75;entryDx=0;entryDy=0;" parent="1" source="E5bmAt0e2NMVcmRqQRA6-75" target="E5bmAt0e2NMVcmRqQRA6-39" edge="1">
          <mxGeometry relative="1" as="geometry">
            <mxPoint x="580" y="350" as="sourcePoint" />
            <mxPoint x="719" y="375" as="targetPoint" />
          </mxGeometry>
        </mxCell>
        <mxCell id="E5bmAt0e2NMVcmRqQRA6-88" style="edgeStyle=orthogonalEdgeStyle;rounded=0;orthogonalLoop=1;jettySize=auto;html=1;exitX=1;exitY=0.5;exitDx=0;exitDy=0;entryX=0;entryY=0.5;entryDx=0;entryDy=0;" parent="1" source="E5bmAt0e2NMVcmRqQRA6-79" target="E5bmAt0e2NMVcmRqQRA6-39" edge="1">
          <mxGeometry relative="1" as="geometry">
            <mxPoint x="511" y="150" as="sourcePoint" />
            <mxPoint x="511" y="180" as="targetPoint" />
          </mxGeometry>
        </mxCell>
        <mxCell id="E5bmAt0e2NMVcmRqQRA6-99" style="edgeStyle=orthogonalEdgeStyle;rounded=0;orthogonalLoop=1;jettySize=auto;html=1;exitX=0;exitY=0.5;exitDx=0;exitDy=0;entryX=1;entryY=0.5;entryDx=0;entryDy=0;" parent="1" source="E5bmAt0e2NMVcmRqQRA6-92" target="E5bmAt0e2NMVcmRqQRA6-94" edge="1">
          <mxGeometry relative="1" as="geometry" />
        </mxCell>
        <mxCell id="E5bmAt0e2NMVcmRqQRA6-101" style="edgeStyle=orthogonalEdgeStyle;rounded=0;orthogonalLoop=1;jettySize=auto;html=1;exitX=0.5;exitY=1;exitDx=0;exitDy=0;entryX=0.5;entryY=0;entryDx=0;entryDy=0;" parent="1" source="E5bmAt0e2NMVcmRqQRA6-92" target="E5bmAt0e2NMVcmRqQRA6-96" edge="1">
          <mxGeometry relative="1" as="geometry" />
        </mxCell>
        <mxCell id="E5bmAt0e2NMVcmRqQRA6-92" value="&lt;font style=&quot;font-size: 14px;&quot; face=&quot;Helvetica&quot;&gt;Demodulator&lt;/font&gt;" style="rounded=0;whiteSpace=wrap;html=1;fillColor=#fff2cc;strokeColor=#d6b656;" parent="1" vertex="1">
          <mxGeometry x="690" y="300" width="100" height="40" as="geometry" />
        </mxCell>
        <mxCell id="E5bmAt0e2NMVcmRqQRA6-100" style="edgeStyle=orthogonalEdgeStyle;rounded=0;orthogonalLoop=1;jettySize=auto;html=1;exitX=0;exitY=0.5;exitDx=0;exitDy=0;entryX=1;entryY=0.5;entryDx=0;entryDy=0;" parent="1" source="E5bmAt0e2NMVcmRqQRA6-94" target="E5bmAt0e2NMVcmRqQRA6-95" edge="1">
          <mxGeometry relative="1" as="geometry" />
        </mxCell>
        <mxCell id="E5bmAt0e2NMVcmRqQRA6-94" value="&lt;font style=&quot;font-size: 14px;&quot; face=&quot;Helvetica&quot;&gt;Decoded bits stream&lt;/font&gt;" style="rounded=0;whiteSpace=wrap;html=1;fillColor=#fff2cc;strokeColor=#d6b656;" parent="1" vertex="1">
          <mxGeometry x="571" y="300" width="100" height="40" as="geometry" />
        </mxCell>
        <mxCell id="E5bmAt0e2NMVcmRqQRA6-95" value="&lt;font style=&quot;font-size: 14px;&quot; face=&quot;Helvetica&quot;&gt;Uncoded BER&lt;/font&gt;" style="rounded=0;whiteSpace=wrap;html=1;fillColor=#d5e8d4;strokeColor=#82b366;" parent="1" vertex="1">
          <mxGeometry x="451" y="300" width="100" height="40" as="geometry" />
        </mxCell>
        <mxCell id="E5bmAt0e2NMVcmRqQRA6-96" value="&lt;font style=&quot;font-size: 14px;&quot; face=&quot;Helvetica&quot;&gt;EVM&lt;/font&gt;" style="rounded=0;whiteSpace=wrap;html=1;fillColor=#d5e8d4;strokeColor=#82b366;" parent="1" vertex="1">
          <mxGeometry x="690" y="360" width="100" height="40" as="geometry" />
        </mxCell>
        <mxCell id="E5bmAt0e2NMVcmRqQRA6-98" value="" style="endArrow=classic;html=1;rounded=0;exitX=0.5;exitY=1;exitDx=0;exitDy=0;entryX=0.5;entryY=0;entryDx=0;entryDy=0;" parent="1" source="E5bmAt0e2NMVcmRqQRA6-39" target="E5bmAt0e2NMVcmRqQRA6-92" edge="1">
          <mxGeometry width="50" height="50" relative="1" as="geometry">
            <mxPoint x="360" y="330" as="sourcePoint" />
            <mxPoint x="410" y="280" as="targetPoint" />
          </mxGeometry>
        </mxCell>
      </root>
    </mxGraphModel>
  </diagram>
</mxfile>
